<?xml version="1.0" encoding="UTF-8"?>
<svg width="23px" height="23px" viewBox="0 0 23 23" version="1.1" xmlns="http://www.w3.org/2000/svg" xmlns:xlink="http://www.w3.org/1999/xlink">
    <!-- Generator: Sketch 47.1 (45422) - http://www.bohemiancoding.com/sketch -->
    <title>close_slice</title>
    <desc>Created with Sketch.</desc>
    <defs></defs>
    <g id="Page-1" stroke="none" stroke-width="1" fill="none" fill-rule="evenodd">
        <g id="Artboard" transform="translate(-1823.000000, -126.000000)" fill-rule="nonzero" fill="#FFFFFF">
            <path d="M1836.57697,137.502071 L1845.54221,128.52855 C1846.11945,127.948544 1846.11945,127.015011 1845.54221,126.435005 C1844.96497,125.854998 1844.02867,125.854998 1843.45143,126.435005 L1834.48619,135.408526 L1825.52372,126.435005 C1824.94647,125.854998 1824.01018,125.854998 1823.43293,126.435005 C1822.85569,127.015011 1822.85569,127.948544 1823.43293,128.52855 L1832.39541,137.49931 L1823.43293,146.472831 C1822.85569,147.052837 1822.85569,147.98637 1823.43293,148.566376 C1823.72017,148.856379 1824.09856,149 1824.47971,149 C1824.85809,149 1825.23648,148.856379 1825.52648,148.566376 L1834.48619,139.595617 L1843.44866,148.566376 C1843.73591,148.856379 1844.11705,149 1844.49544,149 C1844.87382,149 1845.25221,148.856379 1845.53945,148.566376 C1846.11669,147.98637 1846.11669,147.052837 1845.53945,146.472831 L1836.57697,137.502071 Z" id="close"></path>
        </g>
    </g>
</svg>